<?xml version="1.0" encoding="UTF-8"?>
<svg version="1.1" xmlns="http://www.w3.org/2000/svg" width="193" height="188">
<path d="M0 0 C1.26951004 -0.01022186 2.53902008 -0.02044373 3.84700012 -0.03097534 C7.30595925 -0.05758688 10.76447909 -0.05893168 14.22352052 -0.05384874 C17.12325422 -0.05169726 20.02290121 -0.06150687 22.92261618 -0.07105958 C29.77106895 -0.09319272 36.61930228 -0.09415789 43.46777344 -0.08203125 C50.50431214 -0.06996201 57.54004996 -0.09455883 64.57645208 -0.13717139 C70.64306431 -0.17254344 76.70942326 -0.18438411 82.77613467 -0.1778959 C86.38830449 -0.17429114 89.99990325 -0.1793284 93.61197853 -0.20732498 C97.64678529 -0.23743204 101.67999056 -0.21842245 105.71484375 -0.1953125 C106.89185852 -0.21059998 108.06887329 -0.22588745 109.28155518 -0.24163818 C118.29745517 -0.12811685 125.98278749 2.28675862 132.98183918 8.1726284 C140.41874517 16.17577328 141.64510025 24.92721981 141.60083008 35.49780273 C141.61105194 36.76731277 141.6212738 38.03682281 141.63180542 39.34480286 C141.65841696 42.80376199 141.65976176 46.26228182 141.65467882 49.72132325 C141.65252734 52.62105695 141.66233695 55.52070395 141.67188966 58.42041892 C141.6940228 65.26887168 141.69498796 72.11710501 141.68286133 78.96557617 C141.67079209 86.00211487 141.69538891 93.03785269 141.73800147 100.07425481 C141.77337352 106.14086705 141.78521419 112.207226 141.77872598 118.2739374 C141.77512122 121.88610723 141.78015848 125.49770598 141.80815506 129.10978127 C141.83826212 133.14458802 141.81925252 137.17779329 141.79614258 141.21264648 C141.81143005 142.38966125 141.82671753 143.56667603 141.84246826 144.77935791 C141.72894693 153.79525791 139.31407146 161.48059022 133.42820168 168.47964191 C125.42505679 175.9165479 116.67361027 177.14290298 106.10302734 177.09863281 C104.8335173 177.10885468 103.56400726 177.11907654 102.25602722 177.12960815 C98.79706809 177.1562197 95.33854825 177.15756449 91.87950683 177.15248156 C88.97977312 177.15033007 86.08012613 177.16013969 83.18041116 177.1696924 C76.3319584 177.19182554 69.48372506 177.1927907 62.63525391 177.18066406 C55.59871521 177.16859482 48.56297738 177.19319164 41.52657527 177.2358042 C35.45996303 177.27117626 29.39360408 177.28301693 23.32689267 177.27652872 C19.71472285 177.27292396 16.1031241 177.27796122 12.49104881 177.30595779 C8.45624205 177.33606486 4.42303679 177.31705526 0.38818359 177.29394531 C-0.78883118 177.30923279 -1.96584595 177.32452026 -3.17852783 177.340271 C-12.19442783 177.22674966 -19.87976014 174.81187419 -26.87881184 168.92600441 C-34.31571782 160.92285953 -35.5420729 152.171413 -35.49780273 141.60083008 C-35.5080246 140.33132004 -35.51824646 139.06181 -35.52877808 137.75382996 C-35.55538962 134.29487083 -35.55673442 130.83635099 -35.55165148 127.37730956 C-35.54949999 124.47757586 -35.55930961 121.57792887 -35.56886232 118.67821389 C-35.59099546 111.82976113 -35.59196062 104.9815278 -35.57983398 98.13305664 C-35.56776475 91.09651794 -35.59236157 84.06078012 -35.63497412 77.024378 C-35.67034618 70.95776577 -35.68218685 64.89140682 -35.67569864 58.82469541 C-35.67209388 55.21252559 -35.67713114 51.60092683 -35.70512772 47.98885155 C-35.73523478 43.95404479 -35.71622518 39.92083952 -35.69311523 35.88598633 C-35.70840271 34.70897156 -35.72369019 33.53195679 -35.73944092 32.3192749 C-35.62591959 23.30337491 -33.21104411 15.61804259 -27.32517433 8.6189909 C-19.32202945 1.18208491 -10.57058292 -0.04427017 0 0 Z " fill="#F98636" transform="translate(40.948486328125,6.45068359375)"/>
<path d="M0 0 C1.26951004 -0.01022186 2.53902008 -0.02044373 3.84700012 -0.03097534 C7.30595925 -0.05758688 10.76447909 -0.05893168 14.22352052 -0.05384874 C17.12325422 -0.05169726 20.02290121 -0.06150687 22.92261618 -0.07105958 C29.77106895 -0.09319272 36.61930228 -0.09415789 43.46777344 -0.08203125 C50.50431214 -0.06996201 57.54004996 -0.09455883 64.57645208 -0.13717139 C70.64306431 -0.17254344 76.70942326 -0.18438411 82.77613467 -0.1778959 C86.38830449 -0.17429114 89.99990325 -0.1793284 93.61197853 -0.20732498 C97.64678529 -0.23743204 101.67999056 -0.21842245 105.71484375 -0.1953125 C106.89185852 -0.21059998 108.06887329 -0.22588745 109.28155518 -0.24163818 C118.29745517 -0.12811685 125.98278749 2.28675862 132.98183918 8.1726284 C140.41874517 16.17577328 141.64510025 24.92721981 141.60083008 35.49780273 C141.61105194 36.76731277 141.6212738 38.03682281 141.63180542 39.34480286 C141.65841696 42.80376199 141.65976176 46.26228182 141.65467882 49.72132325 C141.65252734 52.62105695 141.66233695 55.52070395 141.67188966 58.42041892 C141.6940228 65.26887168 141.69498796 72.11710501 141.68286133 78.96557617 C141.67079209 86.00211487 141.69538891 93.03785269 141.73800147 100.07425481 C141.77337352 106.14086705 141.78521419 112.207226 141.77872598 118.2739374 C141.77512122 121.88610723 141.78015848 125.49770598 141.80815506 129.10978127 C141.83826212 133.14458802 141.81925252 137.17779329 141.79614258 141.21264648 C141.81143005 142.38966125 141.82671753 143.56667603 141.84246826 144.77935791 C141.72894693 153.79525791 139.31407146 161.48059022 133.42820168 168.47964191 C125.42505679 175.9165479 116.67361027 177.14290298 106.10302734 177.09863281 C104.8335173 177.10885468 103.56400726 177.11907654 102.25602722 177.12960815 C98.79706809 177.1562197 95.33854825 177.15756449 91.87950683 177.15248156 C88.97977312 177.15033007 86.08012613 177.16013969 83.18041116 177.1696924 C76.3319584 177.19182554 69.48372506 177.1927907 62.63525391 177.18066406 C55.59871521 177.16859482 48.56297738 177.19319164 41.52657527 177.2358042 C35.45996303 177.27117626 29.39360408 177.28301693 23.32689267 177.27652872 C19.71472285 177.27292396 16.1031241 177.27796122 12.49104881 177.30595779 C8.45624205 177.33606486 4.42303679 177.31705526 0.38818359 177.29394531 C-0.78883118 177.30923279 -1.96584595 177.32452026 -3.17852783 177.340271 C-12.19442783 177.22674966 -19.87976014 174.81187419 -26.87881184 168.92600441 C-34.31571782 160.92285953 -35.5420729 152.171413 -35.49780273 141.60083008 C-35.5080246 140.33132004 -35.51824646 139.06181 -35.52877808 137.75382996 C-35.55538962 134.29487083 -35.55673442 130.83635099 -35.55165148 127.37730956 C-35.54949999 124.47757586 -35.55930961 121.57792887 -35.56886232 118.67821389 C-35.59099546 111.82976113 -35.59196062 104.9815278 -35.57983398 98.13305664 C-35.56776475 91.09651794 -35.59236157 84.06078012 -35.63497412 77.024378 C-35.67034618 70.95776577 -35.68218685 64.89140682 -35.67569864 58.82469541 C-35.67209388 55.21252559 -35.67713114 51.60092683 -35.70512772 47.98885155 C-35.73523478 43.95404479 -35.71622518 39.92083952 -35.69311523 35.88598633 C-35.70840271 34.70897156 -35.72369019 33.53195679 -35.73944092 32.3192749 C-35.62591959 23.30337491 -33.21104411 15.61804259 -27.32517433 8.6189909 C-19.32202945 1.18208491 -10.57058292 -0.04427017 0 0 Z M35.05151367 13.54931641 C34.13744387 15.94887785 34.13744387 15.94887785 34.17651367 18.36181641 C34.1378418 19.15201172 34.09916992 19.94220703 34.05932617 20.75634766 C34.05674805 21.34802734 34.05416992 21.93970703 34.05151367 22.54931641 C32.30458573 23.22399203 30.55382842 23.88875797 28.80151367 24.54931641 C27.82698242 24.92056641 26.85245117 25.29181641 25.84838867 25.67431641 C22.82203693 26.62110801 20.19782569 26.54931641 17.05151367 26.54931641 C17.05151367 25.88931641 17.05151367 25.22931641 17.05151367 24.54931641 C13.43903226 22.14099547 12.31276399 21.82570786 8.05151367 22.54931641 C5.04281491 24.52146123 2.60928287 27.03375462 0.05151367 29.54931641 C-1.00654708 30.51487281 -2.06657322 31.47827833 -3.12817383 32.43994141 C-4.23637493 33.47487032 -5.3431467 34.51133189 -6.44848633 35.54931641 C-6.98940918 36.0349707 -7.53033203 36.520625 -8.08764648 37.02099609 C-10.91008896 39.74805509 -11.91246596 41.2947364 -12.46801758 45.22119141 C-11.93420377 48.64081068 -11.58819031 49.53956388 -9.13598633 51.79931641 C-7.72973633 53.51806641 -7.72973633 53.51806641 -6.94848633 55.54931641 C-7.82698408 58.67676839 -9.11163254 61.25517132 -10.67895508 64.09619141 C-12.17829396 66.53301535 -12.17829396 66.53301535 -11.94848633 69.54931641 C-12.55176758 69.50291016 -13.15504883 69.45650391 -13.77661133 69.40869141 C-18.95076948 69.09215542 -18.95076948 69.09215542 -23.44848633 71.36181641 C-26.89806403 76.39245056 -26.2066824 81.99337144 -26.26098633 87.86181641 C-26.28999023 88.895 -26.31899414 89.92818359 -26.34887695 90.99267578 C-26.40054401 97.18874801 -26.0844098 100.82819535 -21.94848633 105.54931641 C-20.94012571 106.78198989 -20.94012571 106.78198989 -18.88208008 106.64697266 C-18.05836914 106.63537109 -17.2346582 106.62376953 -16.38598633 106.61181641 C-15.55969727 106.60279297 -14.7334082 106.59376953 -13.88208008 106.58447266 C-13.24399414 106.57287109 -12.6059082 106.56126953 -11.94848633 106.54931641 C-10.28181966 111.54931641 -8.61515299 116.54931641 -6.94848633 121.54931641 C-7.77348633 122.22994141 -8.59848633 122.91056641 -9.44848633 123.61181641 C-12.17339288 126.35337575 -12.17339288 126.35337575 -12.69848633 129.86181641 C-11.6057323 135.23452372 -8.74914975 137.74865299 -4.94848633 141.54931641 C-4.06805664 142.51224609 -3.18762695 143.47517578 -2.28051758 144.46728516 C-1.33786985 145.47507191 -0.39386305 146.4815892 0.55151367 147.48681641 C1.42807617 148.42396484 2.30463867 149.36111328 3.20776367 150.32666016 C6.61423015 152.98913189 8.75473691 153.51426112 13.05151367 153.54931641 C14.9251399 152.61736263 14.9251399 152.61736263 16.17651367 151.04931641 C19.05151367 148.54931641 19.05151367 148.54931641 21.48901367 148.54931641 C23.55072848 149.35388804 25.58724309 150.22288194 27.61401367 151.11181641 C31.04557282 152.80652049 31.04557282 152.80652049 35.05151367 152.54931641 C34.96450195 153.43683594 34.96450195 153.43683594 34.87573242 154.34228516 C34.83061523 155.13248047 34.78549805 155.92267578 34.73901367 156.73681641 C34.68100586 157.51412109 34.62299805 158.29142578 34.56323242 159.09228516 C35.36069859 163.10513491 36.64926757 164.25159096 40.05151367 166.54931641 C44.41896397 167.2175497 48.70637896 167.10958504 53.11401367 166.98681641 C54.89001953 166.97811523 54.89001953 166.97811523 56.7019043 166.96923828 C63.6963849 167.06441211 63.6963849 167.06441211 70.05151367 164.54931641 C72.82787264 160.94004975 72.19627156 156.89205295 72.05151367 152.54931641 C72.91776367 152.44619141 73.78401367 152.34306641 74.67651367 152.23681641 C78.11743365 151.69698065 78.11743365 151.69698065 81.17651367 149.92431641 C84.05151367 148.54931641 84.05151367 148.54931641 86.17651367 148.67431641 C88.05151367 149.54931641 88.05151367 149.54931641 89.80151367 151.11181641 C92.4951045 152.83272166 94.72697601 153.21999915 97.91479492 153.08447266 C102.2658415 151.99472242 105.00678413 148.67372111 108.05151367 145.54931641 C108.85459961 144.76943359 109.65768555 143.98955078 110.48510742 143.18603516 C116.46554231 137.84359552 116.46554231 137.84359552 119.48901367 130.73681641 C119.02841304 127.38101181 118.65228073 126.79790109 116.48901367 124.42431641 C115.68463867 123.47556641 114.88026367 122.52681641 114.05151367 121.54931641 C114.50938463 118.02227919 116.11174297 114.73888834 117.43041992 111.45166016 C118.20669656 109.40753563 118.20669656 109.40753563 118.05151367 106.54931641 C118.64319336 106.60732422 119.23487305 106.66533203 119.84448242 106.72509766 C120.63467773 106.77021484 121.42487305 106.81533203 122.23901367 106.86181641 C123.01631836 106.91982422 123.79362305 106.97783203 124.59448242 107.03759766 C127.37568637 106.48489417 129.14191256 105.613547 131.06347656 103.49536133 C133.43622534 98.82197846 132.75724662 93.15702106 132.67651367 88.04931641 C132.69584961 86.82599609 132.71518555 85.60267578 132.73510742 84.34228516 C132.76527089 77.36870224 132.76527089 77.36870224 129.78198242 71.25634766 C127.19551375 69.63934221 125.74310174 68.88956665 122.73901367 68.73681641 C121.52213867 68.67494141 120.30526367 68.61306641 119.05151367 68.54931641 C118.21165284 66.61463698 117.37983341 64.67646512 116.55151367 62.73681641 C116.08745117 61.65787109 115.62338867 60.57892578 115.14526367 59.46728516 C114.05151367 56.54931641 114.05151367 56.54931641 114.05151367 53.54931641 C114.69088867 52.97181641 115.33026367 52.39431641 115.98901367 51.79931641 C118.26661196 49.60202185 118.26661196 49.60202185 119.23901367 46.29931641 C118.95579701 40.63498312 115.98327212 38.38825088 112.05151367 34.54931641 C111.10029124 33.5786196 110.15118745 32.60584354 109.20385742 31.63134766 C103.6831966 25.31633364 103.6831966 25.31633364 96.30151367 22.17431641 C92.80165666 22.24693532 92.80165666 22.24693532 90.23901367 25.23681641 C87.05151367 27.54931641 87.05151367 27.54931641 84.88354492 27.24853516 C83.32045196 26.69608521 81.77255125 26.0987602 80.24291992 25.45947266 C77.55906763 24.34478891 74.92416166 23.91760461 72.05151367 23.54931641 C72.10952148 22.95763672 72.1675293 22.36595703 72.22729492 21.75634766 C72.55576252 16.20706782 72.55576252 16.20706782 69.61401367 11.54931641 C68.34557617 10.55931641 68.34557617 10.55931641 67.05151367 9.54931641 C66.55651367 9.05431641 66.55651367 9.05431641 66.05151367 8.54931641 C61.99767348 8.21131812 57.93012286 8.22415173 53.86401367 8.17431641 C52.72641602 8.13693359 51.58881836 8.09955078 50.41674805 8.06103516 C43.56153543 7.9890014 39.5069549 8.05916265 35.05151367 13.54931641 Z " fill="#F97316" transform="translate(40.948486328125,6.45068359375)"/>
<path d="M0 0 C2.3984375 -0.37231445 2.3984375 -0.37231445 5.375 -0.36328125 C6.44234375 -0.36263672 7.5096875 -0.36199219 8.609375 -0.36132812 C9.72828125 -0.34521484 10.8471875 -0.32910156 12 -0.3125 C13.67835937 -0.31733398 13.67835937 -0.31733398 15.390625 -0.32226562 C23.7331497 -0.2668503 23.7331497 -0.2668503 26 2 C26.4140625 4.3828125 26.4140625 4.3828125 26.625 7.125 C26.73714844 8.49011719 26.73714844 8.49011719 26.8515625 9.8828125 C26.90054688 10.58148438 26.94953125 11.28015625 27 12 C27.81984375 12.33773437 28.6396875 12.67546875 29.484375 13.0234375 C30.56203125 13.46945313 31.6396875 13.91546875 32.75 14.375 C33.81734375 14.81585938 34.8846875 15.25671875 35.984375 15.7109375 C37.75808033 16.4691276 39.51840446 17.26327347 41.23828125 18.13671875 C43.74740418 19.36624462 45.23856324 19.47146481 48 19 C48.825 18.154375 49.65 17.30875 50.5 16.4375 C51.7375 15.2309375 51.7375 15.2309375 53 14 C58.93953005 14.36215184 61.90682631 18.24410603 65.875 22.25 C66.926875 23.25353516 66.926875 23.25353516 68 24.27734375 C68.65742188 24.93347656 69.31484375 25.58960937 69.9921875 26.265625 C70.59401855 26.86149414 71.19584961 27.45736328 71.81591797 28.07128906 C73 30 73 30 72.87548828 32.60839844 C72 35 72 35 69 37 C69 35.02 69 33.04 69 31 C60.42 31 51.84 31 43 31 C42.67 34.63 42.34 38.26 42 42 C41.56637263 44.85244258 41.11020281 47.67662538 40.58984375 50.51171875 C40.45808243 51.25081985 40.32632111 51.98992096 40.19056702 52.75141907 C39.77723818 55.06425404 39.35751025 57.37587011 38.9375 59.6875 C38.65256601 61.27531374 38.36805765 62.86320392 38.08398438 64.45117188 C37.39422143 68.30167915 36.69872559 72.15110947 36 76 C35.67 76 35.34 76 35 76 C33.8558555 70.2351549 32.7166589 64.46936247 31.58203125 58.70263672 C31.19536921 56.74110536 30.80735777 54.7798395 30.41796875 52.81884766 C29.85842378 49.99971165 29.30374256 47.1796557 28.75 44.359375 C28.57500977 43.48319519 28.40001953 42.60701538 28.21972656 41.70428467 C28.05956055 40.88373596 27.89939453 40.06318726 27.734375 39.21777344 C27.59225586 38.49829529 27.45013672 37.77881714 27.30371094 37.03753662 C27 35 27 35 27 31 C18.75 31 10.5 31 2 31 C2 60.04 2 89.08 2 119 C6.95 119 11.9 119 17 119 C17 103.49 17 87.98 17 72 C18.45047517 74.90095035 19.33191381 76.84169471 20.05322266 79.86303711 C20.23325836 80.6073851 20.41329407 81.35173309 20.5987854 82.11863708 C20.78532684 82.91351028 20.97186829 83.70838348 21.1640625 84.52734375 C21.45946426 85.76624107 21.45946426 85.76624107 21.76083374 87.03016663 C22.17506057 88.77367567 22.58675824 90.51778728 22.99609375 92.26245117 C23.6223547 94.92624823 24.2598495 97.58718154 24.8984375 100.24804688 C25.30016062 101.94515134 25.70122435 103.64241205 26.1015625 105.33984375 C26.2921524 106.13269272 26.48274231 106.92554169 26.67910767 107.74241638 C26.85283905 108.48991653 27.02657043 109.23741669 27.20556641 110.00756836 C27.35941803 110.6594664 27.51326965 111.31136444 27.67178345 111.98301697 C28 114 28 114 28 119 C32.62 119 37.24 119 42 119 C42.25523438 117.22238281 42.51046875 115.44476563 42.7734375 113.61328125 C44.08710206 105.07446161 45.85251004 96.6408448 47.625 88.1875 C47.95343186 86.60878777 48.28155874 85.03001205 48.609375 83.45117188 C49.4027464 79.63337581 50.2002035 75.816455 51 72 C51.33 72 51.66 72 52 72 C52 87.51 52 103.02 52 119 C57.61 119 63.22 119 69 119 C69 116.69 69 114.38 69 112 C70.32 112.99 71.64 113.98 73 115 C72.20129778 121.02668952 68.92458653 123.73972219 64.75 127.875 C64.08097656 128.57625 63.41195312 129.2775 62.72265625 130 C62.06652344 130.65742188 61.41039062 131.31484375 60.734375 131.9921875 C59.84057129 132.89493408 59.84057129 132.89493408 58.92871094 133.81591797 C57 135 57 135 54.42675781 134.85205078 C52 134 52 134 49.4375 131.375 C48.633125 130.59125 47.82875 129.8075 47 129 C42.30575441 129.44863419 37.66008294 132.11687382 33.3125 133.91601562 C28.20598139 136 28.20598139 136 26 136 C26.01160156 136.78246094 26.02320312 137.56492188 26.03515625 138.37109375 C26.04417969 139.38300781 26.05320312 140.39492187 26.0625 141.4375 C26.07410156 142.44683594 26.08570312 143.45617187 26.09765625 144.49609375 C26 147 26 147 25 148 C20.86037717 148.25301239 16.70894004 148.18522549 12.5625 148.1875 C11.39138672 148.19974609 10.22027344 148.21199219 9.01367188 148.22460938 C7.89669922 148.22654297 6.77972656 148.22847656 5.62890625 148.23046875 C4.0831189 148.23663208 4.0831189 148.23663208 2.50610352 148.24291992 C0 148 0 148 -2 146 C-2.4140625 143.6171875 -2.4140625 143.6171875 -2.625 140.875 C-2.69976562 139.96492187 -2.77453125 139.05484375 -2.8515625 138.1171875 C-2.90054688 137.41851562 -2.94953125 136.71984375 -3 136 C-3.80824219 135.74605469 -4.61648437 135.49210938 -5.44921875 135.23046875 C-7.05216797 134.71419922 -7.05216797 134.71419922 -8.6875 134.1875 C-9.74324219 133.85105469 -10.79898438 133.51460937 -11.88671875 133.16796875 C-15 132 -15 132 -17.765625 130.328125 C-18.50296875 129.88984375 -19.2403125 129.4515625 -20 129 C-22.85147606 129.77767529 -23.97599814 130.97290113 -25.9375 133.1875 C-28 135 -28 135 -30.4375 135.0625 C-33.8081029 133.66493294 -35.51155485 131.66619123 -38 129 C-39.85998012 127.41571631 -41.74424872 125.86765402 -43.64453125 124.33203125 C-44.09183594 123.89246094 -44.53914063 123.45289063 -45 123 C-45 122.34 -45 121.68 -45 121 C-45.66 121 -46.32 121 -47 121 C-47.6875 117.6875 -47.6875 117.6875 -48 114 C-46.6875 112.0625 -46.6875 112.0625 -45 111 C-44.34 111 -43.68 111 -43 111 C-42.2265625 112.1446875 -42.2265625 112.1446875 -41.4375 113.3125 C-37.34972217 117.81953709 -32.77725866 118.71849789 -26.83984375 119.3203125 C-19.95742155 119.561801 -13.7391113 119.11283335 -8 115 C-4.47264674 111.27192325 -3.49133984 108.93549702 -3.390625 103.82421875 C-3.35839844 102.66728516 -3.32617188 101.51035156 -3.29296875 100.31835938 C-3.27878906 99.12017578 -3.26460937 97.92199219 -3.25 96.6875 C-3.22035156 95.46998047 -3.19070312 94.25246094 -3.16015625 92.99804688 C-3.08959169 89.99905291 -3.04251627 86.99952272 -3 84 C-8.61 84 -14.22 84 -20 84 C-20 91.59 -20 99.18 -20 107 C-22.475 107.495 -22.475 107.495 -25 108 C-26 107 -26 107 -26.12025452 104.45005798 C-26.11803391 103.31532547 -26.11581329 102.18059296 -26.11352539 101.01147461 C-26.11344986 99.73022202 -26.11337433 98.44896942 -26.11329651 97.12889099 C-26.10818909 95.72004152 -26.10297309 94.31119244 -26.09765625 92.90234375 C-26.09579202 91.46887766 -26.09436814 90.03541093 -26.09336853 88.60194397 C-26.08954372 84.82240043 -26.07971377 81.0428951 -26.06866455 77.2633667 C-26.05844963 73.40930702 -26.05387074 69.55524118 -26.04882812 65.70117188 C-26.03809146 58.13409713 -26.02101549 50.56705391 -26 43 C-24.34385343 42.61781233 -22.67542976 42.28604898 -21 42 C-20 43 -20 43 -19.88647461 44.76586914 C-19.89171143 45.51473389 -19.89694824 46.26359863 -19.90234375 47.03515625 C-19.90556641 47.84404297 -19.90878906 48.65292969 -19.91210938 49.48632812 C-19.92048828 50.33646484 -19.92886719 51.18660156 -19.9375 52.0625 C-19.94201172 52.91650391 -19.94652344 53.77050781 -19.95117188 54.65039062 C-19.96299627 56.76695663 -19.98093231 58.88348685 -20 61 C-14.39 61 -8.78 61 -3 61 C-3.08731537 57.79040748 -3.19424593 54.58347844 -3.3125 51.375 C-3.34633789 50.01955078 -3.34633789 50.01955078 -3.38085938 48.63671875 C-3.59104439 43.40120101 -4.05529008 39.50998048 -7 35 C-13.86561978 29.89479555 -21.77085128 30.4845276 -30 31 C-35.00347337 32.04047764 -38.70166438 34.01451113 -42 38 C-44.46800047 36.84826645 -46.04783565 35.95216435 -48 34 C-48.3936149 31.0525562 -48.36958119 29.55385026 -46.70239258 27.05541992 C-46.10579834 26.45318604 -45.5092041 25.85095215 -44.89453125 25.23046875 C-43.91323242 24.23950195 -43.91323242 24.23950195 -42.91210938 23.22851562 C-42.21923828 22.55498047 -41.52636719 21.88144531 -40.8125 21.1875 C-40.13896484 20.49462891 -39.46542969 19.80175781 -38.77148438 19.08789062 C-38.11083984 18.43369141 -37.45019531 17.77949219 -36.76953125 17.10546875 C-36.16729736 16.50887451 -35.56506348 15.91228027 -34.94458008 15.29760742 C-32.43100826 13.62031499 -30.96535193 13.56533734 -28 14 C-27.195625 14.845625 -26.39125 15.69125 -25.5625 16.5625 C-23.25711272 19.30257832 -23.25711272 19.30257832 -20.25 19.0625 C-16.75647429 17.92038582 -13.51789177 16.47536062 -10.19140625 14.921875 C-7.4988163 13.78916336 -4.89873118 13.29730576 -2 13 C-2.02320313 12.31292969 -2.04640625 11.62585937 -2.0703125 10.91796875 C-2.08835938 10.01691406 -2.10640625 9.11585937 -2.125 8.1875 C-2.14820313 7.29417969 -2.17140625 6.40085937 -2.1953125 5.48046875 C-2 3 -2 3 0 0 Z " fill="#F9751A" transform="translate(82,20)"/>
<path d="M0 0 C8.25 0 16.5 0 25 0 C25.56589844 2.87589844 26.13179687 5.75179687 26.71484375 8.71484375 C27.26331931 11.48838362 27.81311298 14.26165914 28.36303711 17.03491211 C28.745604 18.96790734 29.12679204 20.90117597 29.5065918 22.8347168 C30.05158176 25.60798383 30.60146327 28.38024162 31.15234375 31.15234375 C31.3221727 32.02213364 31.49200165 32.89192352 31.66697693 33.78807068 C32.14250067 37.71530956 32.14250067 37.71530956 34 41 C36.31 27.47 38.62 13.94 41 0 C49.58 0 58.16 0 67 0 C67 29.04 67 58.08 67 88 C61.39 88 55.78 88 50 88 C49.505 67.21 49.505 67.21 49 46 C46.41020544 58.69941654 46.41020544 58.69941654 43.82446289 71.3996582 C43.49900754 72.99172925 43.17341471 74.5837722 42.84765625 76.17578125 C42.68003784 77.00251343 42.51241943 77.82924561 42.33972168 78.68103027 C42.09627014 79.86819641 42.09627014 79.86819641 41.84790039 81.0793457 C41.70800186 81.76551468 41.56810333 82.45168365 41.42396545 83.15864563 C41 85 41 85 40 88 C35.38 88 30.76 88 26 88 C22.7 73.81 19.4 59.62 16 45 C15.67 59.19 15.34 73.38 15 88 C10.05 88 5.1 88 0 88 C0 58.96 0 29.92 0 0 Z " fill="#0F172A" transform="translate(84,51)"/>
<path d="M0 0 C3.89308694 3.99290968 5.13269221 7.16732268 5.09765625 12.66796875 C5.09443359 13.56064453 5.09121094 14.45332031 5.08789062 15.37304688 C5.07532227 16.76620117 5.07532227 16.76620117 5.0625 18.1875 C5.05798828 19.12787109 5.05347656 20.06824219 5.04882812 21.03710938 C5.03704645 23.35810008 5.01911114 25.67905807 5 28 C-0.61 28 -6.22 28 -12 28 C-12.33 22.06 -12.66 16.12 -13 10 C-14.32 10 -15.64 10 -17 10 C-17 31.12 -17 52.24 -17 74 C-15.68 74 -14.36 74 -13 74 C-12.67 66.41 -12.34 58.82 -12 51 C-6.39 51 -0.78 51 5 51 C5.13510945 55.20941007 5.23419583 59.41447281 5.3125 63.625 C5.35439453 64.81480469 5.39628906 66.00460938 5.43945312 67.23046875 C5.57761477 77.12284265 5.57761477 77.12284265 2.73046875 80.6875 C-3.95904715 86.35301275 -10.115106 87.63251368 -18.84375 87.31640625 C-24.87597185 86.71169094 -29.88739853 85.69677782 -34 81 C-36.86189352 76.70715971 -37.13350282 73.77009504 -37.17700195 68.71191406 C-37.18983719 67.41336487 -37.20267242 66.11481567 -37.21589661 64.7769165 C-37.22406526 63.35648989 -37.23150875 61.93605895 -37.23828125 60.515625 C-37.24235678 59.79896416 -37.2464323 59.08230331 -37.25063133 58.34392548 C-37.27147764 54.54927358 -37.2857845 50.75465767 -37.29516602 46.95996094 C-37.30621648 43.05154205 -37.34060396 39.14369468 -37.38033772 35.23547745 C-37.40655605 32.22075382 -37.41486251 29.20616518 -37.41844749 26.19133759 C-37.42330148 24.75130105 -37.43488156 23.31127006 -37.45348549 21.87134552 C-37.62285511 7.89131154 -37.62285511 7.89131154 -33 2 C-24.43484521 -5.32546134 -9.51496531 -5.10988878 0 0 Z " fill="#0F172A" transform="translate(74,53)"/>
<path d="M0 0 C2.3984375 -0.37231445 2.3984375 -0.37231445 5.375 -0.36328125 C6.44234375 -0.36263672 7.5096875 -0.36199219 8.609375 -0.36132812 C9.72828125 -0.34521484 10.8471875 -0.32910156 12 -0.3125 C13.67835937 -0.31733398 13.67835937 -0.31733398 15.390625 -0.32226562 C23.7331497 -0.2668503 23.7331497 -0.2668503 26 2 C26.4140625 4.3828125 26.4140625 4.3828125 26.625 7.125 C26.73714844 8.49011719 26.73714844 8.49011719 26.8515625 9.8828125 C26.90054688 10.58148438 26.94953125 11.28015625 27 12 C27.81984375 12.33773437 28.6396875 12.67546875 29.484375 13.0234375 C30.56203125 13.46945313 31.6396875 13.91546875 32.75 14.375 C33.81734375 14.81585938 34.8846875 15.25671875 35.984375 15.7109375 C37.75808033 16.4691276 39.51840446 17.26327347 41.23828125 18.13671875 C43.74740418 19.36624462 45.23856324 19.47146481 48 19 C48.825 18.154375 49.65 17.30875 50.5 16.4375 C51.7375 15.2309375 51.7375 15.2309375 53 14 C58.93953005 14.36215184 61.90682631 18.24410603 65.875 22.25 C66.926875 23.25353516 66.926875 23.25353516 68 24.27734375 C68.65742188 24.93347656 69.31484375 25.58960937 69.9921875 26.265625 C70.59401855 26.86149414 71.19584961 27.45736328 71.81591797 28.07128906 C73 30 73 30 72.87548828 32.60839844 C72 35 72 35 69 37 C69 35.02 69 33.04 69 31 C60.42 31 51.84 31 43 31 C42.67 31.66 42.34 32.32 42 33 C41.319375 32.61328125 40.63875 32.2265625 39.9375 31.828125 C31.52224366 27.30716282 23.28975088 25.00413407 14 23 C14 19.37 14 15.74 14 12 C12.68 12 11.36 12 10 12 C10 15.63 10 19.26 10 23 C8.865625 23.24234375 7.73125 23.4846875 6.5625 23.734375 C-2.64874123 25.4899688 -2.64874123 25.4899688 -11.125 29.25 C-15.84328103 32.01478458 -21.1378169 31.09909596 -26.42578125 30.95703125 C-32.19800761 31.02642414 -36.08964702 32.32844114 -40.5 36.1875 C-40.995 36.785625 -41.49 37.38375 -42 38 C-44.46800047 36.84826645 -46.04783565 35.95216435 -48 34 C-48.3936149 31.0525562 -48.36958119 29.55385026 -46.70239258 27.05541992 C-46.10579834 26.45318604 -45.5092041 25.85095215 -44.89453125 25.23046875 C-43.91323242 24.23950195 -43.91323242 24.23950195 -42.91210938 23.22851562 C-42.21923828 22.55498047 -41.52636719 21.88144531 -40.8125 21.1875 C-40.13896484 20.49462891 -39.46542969 19.80175781 -38.77148438 19.08789062 C-38.11083984 18.43369141 -37.45019531 17.77949219 -36.76953125 17.10546875 C-36.16729736 16.50887451 -35.56506348 15.91228027 -34.94458008 15.29760742 C-32.43100826 13.62031499 -30.96535193 13.56533734 -28 14 C-27.195625 14.845625 -26.39125 15.69125 -25.5625 16.5625 C-23.25711272 19.30257832 -23.25711272 19.30257832 -20.25 19.0625 C-16.75647429 17.92038582 -13.51789177 16.47536062 -10.19140625 14.921875 C-7.4988163 13.78916336 -4.89873118 13.29730576 -2 13 C-2.02320313 12.31292969 -2.04640625 11.62585937 -2.0703125 10.91796875 C-2.08835938 10.01691406 -2.10640625 9.11585937 -2.125 8.1875 C-2.14820313 7.29417969 -2.17140625 6.40085937 -2.1953125 5.48046875 C-2 3 -2 3 0 0 Z " fill="#F97316" transform="translate(82,20)"/>
<path d="M0 0 C3.10916259 4.14555012 4.31562636 7.18750388 6 12 C6.69867188 12.04898438 7.39734375 12.09796875 8.1171875 12.1484375 C9.02726563 12.22320312 9.93734375 12.29796875 10.875 12.375 C11.77992188 12.44460937 12.68484375 12.51421875 13.6171875 12.5859375 C16 13 16 13 18 15 C18.25878906 17.30664062 18.25878906 17.30664062 18.265625 20.15625 C18.26949219 21.68958984 18.26949219 21.68958984 18.2734375 23.25390625 C18.26570313 24.32511719 18.25796875 25.39632812 18.25 26.5 C18.25773437 27.57121094 18.26546875 28.64242187 18.2734375 29.74609375 C18.27085937 30.76832031 18.26828125 31.79054688 18.265625 32.84375 C18.26336914 33.78412109 18.26111328 34.72449219 18.25878906 35.69335938 C18 38 18 38 16 40 C12.67779179 40.57730175 9.36712849 40.74099012 6 41 C4.35 44.96 2.7 48.92 1 53 C0.67 53 0.34 53 0 53 C0 35.51 0 18.02 0 0 Z " fill="#F97316" transform="translate(151,68)"/>
<path d="M0 0 C0.33 0 0.66 0 1 0 C1 16.5 1 33 1 50 C-1.672336 46.43688534 -2.77263971 44.15414253 -4 40 C-4.69867188 39.95101562 -5.39734375 39.90203125 -6.1171875 39.8515625 C-7.02726562 39.77679688 -7.93734375 39.70203125 -8.875 39.625 C-9.77992187 39.55539063 -10.68484375 39.48578125 -11.6171875 39.4140625 C-14 39 -14 39 -16 37 C-16.24291992 34.58569336 -16.24291992 34.58569336 -16.23046875 31.58984375 C-16.22853516 30.51798828 -16.22660156 29.44613281 -16.22460938 28.34179688 C-16.21236328 27.21837891 -16.20011719 26.09496094 -16.1875 24.9375 C-16.18685547 23.81021484 -16.18621094 22.68292969 -16.18554688 21.52148438 C-16.14013317 13.14013317 -16.14013317 13.14013317 -15 12 C-13.15108054 11.76636119 -11.29511969 11.58696365 -9.4375 11.4375 C-6.7459375 11.2209375 -6.7459375 11.2209375 -4 11 C-2.68 7.37 -1.36 3.74 0 0 Z " fill="#F97316" transform="translate(36,69)"/>
<path d="M0 0 C9.62475925 0.57196315 20.89955476 2.89955476 28 10 C27.8984375 12.921875 27.8984375 12.921875 27.375 16.75 C27.28234863 17.43578125 27.18969727 18.1215625 27.09423828 18.828125 C25.71542351 28.60243751 23.8420398 38.30448921 22 48 C21.67 48 21.34 48 21 48 C19.8558555 42.2351549 18.7166589 36.46936247 17.58203125 30.70263672 C17.19536921 28.74110536 16.80735777 26.7798395 16.41796875 24.81884766 C15.85842378 21.99971165 15.30374256 19.1796557 14.75 16.359375 C14.57500977 15.48319519 14.40001953 14.60701538 14.21972656 13.70428467 C14.05956055 12.88373596 13.89939453 12.06318726 13.734375 11.21777344 C13.59225586 10.49829529 13.45013672 9.77881714 13.30371094 9.03753662 C13 7 13 7 13 3 C8.71 3 4.42 3 0 3 C0 2.01 0 1.02 0 0 Z " fill="#F97317" transform="translate(96,48)"/>
<path d="M0 0 C1.32 0 2.64 0 4 0 C4 3.63 4 7.26 4 11 C5.2375 11.0825 6.475 11.165 7.75 11.25 C17.12612657 12.31311986 25.28720832 15.66037499 33 21 C32.505 23.475 32.505 23.475 32 26 C31.15179688 25.52949219 30.30359375 25.05898438 29.4296875 24.57421875 C21.04850738 20.07526679 13.46163965 17.50983611 4 16 C4 16.99 4 17.98 4 19 C2.68 19 1.36 19 0 19 C0 18.01 0 17.02 0 16 C-2.20923793 16.453953 -4.41735553 16.91336006 -6.625 17.375 C-7.85476562 17.63023438 -9.08453125 17.88546875 -10.3515625 18.1484375 C-13.97573622 18.92426897 -13.97573622 18.92426897 -17.28125 20.15625 C-20 21 -20 21 -22.875 20.125 C-23.57625 19.75375 -24.2775 19.3825 -25 19 C-17.26548146 13.8436543 -9.48134601 10.5259327 0 11 C0 7.37 0 3.74 0 0 Z " fill="#F98636" transform="translate(92,32)"/>
<path d="M0 0 C5.21142244 1.95428341 10.45476786 2.87891172 15.9375 3.75 C15.9375 3.09 15.9375 2.43 15.9375 1.75 C17.2575 1.75 18.5775 1.75 19.9375 1.75 C19.9375 2.41 19.9375 3.07 19.9375 3.75 C20.84371094 3.52183594 21.74992187 3.29367188 22.68359375 3.05859375 C29.87730799 1.36102944 35.65358154 0.36856719 42.9375 1.75 C35.80114811 6.50756793 29.35838222 7.6880193 20.9375 8.75 C20.6075 12.38 20.2775 16.01 19.9375 19.75 C18.6175 19.42 17.2975 19.09 15.9375 18.75 C15.9375 15.12 15.9375 11.49 15.9375 7.75 C14.535 7.853125 13.1325 7.95625 11.6875 8.0625 C5.13805371 8.09056906 -0.31897735 5.74899126 -6.0625 2.75 C-6.7225 2.09 -7.3825 1.43 -8.0625 0.75 C-4.84991936 -1.23360684 -3.47762693 -1.4300522 0 0 Z " fill="#F98636" transform="translate(76.0625,137.25)"/>
<path d="M0 0 C0.33 0 0.66 0 1 0 C1.12405942 4.87458106 1.21455231 9.74823358 1.2746582 14.62402344 C1.299726 16.28076189 1.3337899 17.93739059 1.37719727 19.59375 C1.43819643 21.98204684 1.46628526 24.36887593 1.48828125 26.7578125 C1.51408768 27.49242706 1.5398941 28.22704163 1.56648254 28.98391724 C1.56856294 32.84152752 1.08349414 35.39549172 -1.28051758 38.39013672 C-3.54034494 40.5588731 -5.10297975 41.92702954 -8 43 C-7.2665259 34.00202899 -5.2940808 25.25466066 -3.4375 16.4375 C-3.10443575 14.84057441 -2.77175019 13.24356978 -2.43945312 11.64648438 C-1.63066852 7.76339729 -0.81675547 3.88141799 0 0 Z " fill="#F97316" transform="translate(133,92)"/>
<path d="M0 0 C0 0.99 0 1.98 0 3 C-2.64 3 -5.28 3 -8 3 C-8 10.59 -8 18.18 -8 26 C-9.65 26.66 -11.3 27.32 -13 28 C-13.05607422 26.48019531 -13.05607422 26.48019531 -13.11328125 24.9296875 C-13.17898388 23.57809061 -13.24542971 22.22652971 -13.3125 20.875 C-13.33505859 20.20984375 -13.35761719 19.5446875 -13.38085938 18.859375 C-13.63141453 14.21271573 -14.72930405 11.02771262 -17 7 C-17.33 6.01 -17.66 5.02 -18 4 C-11.78281367 1.19617087 -6.90445745 -0.16056878 0 0 Z " fill="#F97317" transform="translate(92,48)"/>
<path d="M0 0 C0.33 0 0.66 0 1 0 C1 9.24 1 18.48 1 28 C-4.62389504 23.50088397 -6.58796798 21.19324816 -7.5 14.125 C-7.30236033 8.41540961 -3.9246292 3.9246292 0 0 Z " fill="#F97317" transform="translate(83,79)"/>
<path d="M0 0 C4.19921875 2.63671875 4.19921875 2.63671875 6 4 C6.928125 4.61875 7.85625 5.2375 8.8125 5.875 C11.39481965 9.56402807 11.18933024 10.4187685 10.61328125 14.73828125 C10.20841537 16.93517645 9.77367046 19.12673087 9.3125 21.3125 C9.09916016 22.43462891 8.88582031 23.55675781 8.66601562 24.71289062 C8.13590509 27.48124566 7.57993764 30.24172906 7 33 C6.67 33 6.34 33 6 33 C5.14312828 28.62220593 4.28869105 24.24394596 3.43652344 19.86523438 C3.14617999 18.37519439 2.85516742 16.88528462 2.56347656 15.39550781 C2.14473 13.25619714 1.72837875 11.11643227 1.3125 8.9765625 C1.06113281 7.68830566 0.80976562 6.40004883 0.55078125 5.07275391 C0 2 0 2 0 0 Z " fill="#F97417" transform="translate(111,63)"/>
<path d="M0 0 C2.56616632 3.84924948 2.55097676 6.4349304 3 11 C-0.28491373 13.18994248 -1.83095639 13.35277339 -5.6875 13.625 C-6.68136719 13.69976562 -7.67523438 13.77453125 -8.69921875 13.8515625 C-9.45847656 13.90054688 -10.21773438 13.94953125 -11 14 C-11 13.34 -11 12.68 -11 12 C-10.01 12 -9.02 12 -8 12 C-8 8.7 -8 5.4 -8 2 C-5.36 1.34 -2.72 0.68 0 0 Z " fill="#F97317" transform="translate(107,127)"/>
<path d="M0 0 C1.65 0 3.3 0 5 0 C4.83701416 0.5662207 4.67402832 1.13244141 4.50610352 1.71582031 C3.98315828 4.07601117 3.88603258 6.13282157 3.90234375 8.546875 C3.90556641 9.39121094 3.90878906 10.23554687 3.91210938 11.10546875 C3.92048828 11.97816406 3.92886719 12.85085937 3.9375 13.75 C3.94426758 15.08224609 3.94426758 15.08224609 3.95117188 16.44140625 C3.962926 18.62767329 3.97935751 20.81380179 4 23 C3.01 23 2.02 23 1 23 C0.67 24.32 0.34 25.64 0 27 C-3.27531179 18.46079427 -3.26475294 8.56997648 0 0 Z " fill="#F98535" transform="translate(61,81)"/>
<path d="M0 0 C0 4.29 0 8.58 0 13 C-1.65 13.66 -3.3 14.32 -5 15 C-5 10.38 -5 5.76 -5 1 C-3 0 -3 0 0 0 Z " fill="#F97417" transform="translate(84,61)"/>
<path d="M0 0 C0.42397033 4.23970328 0.43792242 6.98342177 -2.25 10.3125 C-4.53019902 12.54087632 -6.05772281 13.91026771 -9 15 C-8.87102831 8.809359 -6.75724871 6.00014359 -2.59375 1.50390625 C-1 0 -1 0 0 0 Z " fill="#F98636" transform="translate(134,120)"/>
<path d="M0 0 C4.14924331 2.60533882 7.93906624 5.10426613 11 9 C10.8125 12.3125 10.8125 12.3125 10 15 C8.88625 13.8553125 8.88625 13.8553125 7.75 12.6875 C5.23252214 10.02700853 5.23252214 10.02700853 2.75 8.625 C0.07929671 6.14506123 0.2648545 3.50932218 0 0 Z " fill="#F98737" transform="translate(111,63)"/>
<path d="M0 0 C1.85683215 3.71366429 2.51111356 6.2158891 3.125 10.25 C3.29257813 11.32765625 3.46015625 12.4053125 3.6328125 13.515625 C3.75398438 14.33546875 3.87515625 15.1553125 4 16 C3.01 16.33 2.02 16.66 1 17 C1 22.28 1 27.56 1 33 C0.67 33 0.34 33 0 33 C0 22.11 0 11.22 0 0 Z " fill="#F97A22" transform="translate(99,92)"/>
<path d="M0 0 C1.98 0 3.96 0 6 0 C5.67 1.65 5.34 3.3 5 5 C3.35 5 1.7 5 0 5 C0 3.35 0 1.7 0 0 Z " fill="#F98535" transform="translate(151,92)"/>
<path d="M0 0 C2.475 0.99 2.475 0.99 5 2 C5 3.65 5 5.3 5 7 C3.35 6.67 1.7 6.34 0 6 C0 4.02 0 2.04 0 0 Z " fill="#F98535" transform="translate(79,121)"/>
<path d="M0 0 C1.65 0 3.3 0 5 0 C5 1.65 5 3.3 5 5 C3.35 5 1.7 5 0 5 C0 3.35 0 1.7 0 0 Z " fill="#F98534" transform="translate(32,92)"/>
<path d="M0 0 C0 1.65 0 3.3 0 5 C-1.65 5.33 -3.3 5.66 -5 6 C-5 4.35 -5 2.7 -5 1 C-3 0 -3 0 0 0 Z " fill="#F98636" transform="translate(84,61)"/>
<path d="M0 0 C1.7074998 1.28062485 3.37373596 2.61767557 5 4 C5 4.66 5 5.32 5 6 C3.35 5.67 1.7 5.34 0 5 C0 3.35 0 1.7 0 0 Z " fill="#F98636" transform="translate(56,122)"/>
</svg>
